<svg aria-hidden="true" style="position: absolute; width: 0; height: 0; overflow: hidden;" version="1.1" xmlns="http://www.w3.org/2000/svg" xmlns:xlink="http://www.w3.org/1999/xlink">
<defs>
<symbol id="icon-plus" viewBox="0 0 32 32">
<title>plus</title>
<path fill="#23c46e" style="fill: var(--color1, #23c46e)" d="M31.305 19.478h-11.826v11.826c-0.001 0.384-0.312 0.695-0.696 0.696h-5.566c-0.384-0.001-0.694-0.312-0.695-0.696v-11.826h-11.826c-0 0-0.001 0-0.001 0-0.384 0-0.695-0.311-0.695-0.695 0 0 0 0 0 0v0-5.566c0-0.385 0.312-0.696 0.696-0.696h11.826v-11.825c0-0.384 0.311-0.697 0.695-0.697h5.566c0.385 0.001 0.696 0.313 0.696 0.697v0 11.825h11.826c0.384 0 0.695 0.311 0.695 0.697v5.565c0 0.384-0.311 0.695-0.695 0.695v0z"></path>
</symbol>
<symbol id="icon-arrow" viewBox="0 0 35 32">
<title>arrow</title>
<path fill="#23c46e" style="fill: var(--color1, #23c46e)" d="M31.305 19.478h-11.826v11.826c-0.001 0.384-0.312 0.695-0.696 0.696h-5.566c-0.384-0.001-0.694-0.312-0.695-0.696v-11.826h-11.826c-0 0-0.001 0-0.001 0-0.384 0-0.695-0.311-0.695-0.695 0 0 0 0 0 0v0-5.566c0-0.385 0.312-0.696 0.696-0.696h11.826v-11.825c0-0.384 0.311-0.697 0.695-0.697h5.566c0.385 0.001 0.696 0.313 0.696 0.697v0 11.825h11.826c0.384 0 0.695 0.311 0.695 0.697v5.565c0 0.384-0.311 0.695-0.695 0.695v0z"></path>
</symbol>
<symbol id="icon-close" viewBox="0 0 32 32">
<title>close</title>
<path fill="#23c46e" style="fill: var(--color1, #23c46e)" d="M31.305 19.478h-11.826v11.826c-0.001 0.384-0.312 0.695-0.696 0.696h-5.566c-0.384-0.001-0.694-0.312-0.695-0.696v-11.826h-11.826c-0 0-0.001 0-0.001 0-0.384 0-0.695-0.311-0.695-0.695 0 0 0 0 0 0v0-5.566c0-0.385 0.312-0.696 0.696-0.696h11.826v-11.825c0-0.384 0.311-0.697 0.695-0.697h5.566c0.385 0.001 0.696 0.313 0.696 0.697v0 11.825h11.826c0.384 0 0.695 0.311 0.695 0.697v5.565c0 0.384-0.311 0.695-0.695 0.695v0z"></path>
</symbol>
<symbol id="icon-eye" viewBox="0 0 57 32">
<title>eye</title>
<path d="M56.838 14.788c-0.147-0.208-0.265-0.367-0.386-0.523l0.026 0.036c-1.985-2.598-11.812-14.301-27.868-14.301-0.007 0-0.014 0-0.022 0-2.659 0-5.243 0.322-7.714 0.928l0.221-0.046c-13.009 3.108-20.353 13.393-20.712 13.907-0.24 0.337-0.384 0.757-0.384 1.21 0 0.45 0.141 0.867 0.382 1.209l-0.004-0.007c0.006 0.008 0.008 0.010 0.010 0.013l-0.004-0.005c0.422 0.604 10.549 14.79 28.227 14.79 0.007 0 0.014 0 0.022 0 2.659 0 5.243-0.322 7.714-0.928l-0.221 0.046c12.417-2.967 19.673-12.473 20.62-13.777 0.011-0.014 0.041-0.055 0.071-0.097l0.021-0.031c0.51-0.73 0.512-1.685 0.008-2.415-0.006-0.007-0.008-0.011-0.011-0.014l0.003 0.004zM21.273 26.651c2.199 0.642 4.725 1.011 7.337 1.012h0.001c0.002 0 0.005 0 0.007 0 2.22 0 4.377-0.265 6.443-0.766l-0.186 0.038c7.752-1.826 13.304-6.665 16.119-9.655 0.369-0.39 0.742-0.806 1.104-1.231l0.038-0.046c-2.726-3.206-11.109-11.668-23.526-11.668-0.002 0-0.005 0-0.007 0-2.22 0-4.377 0.265-6.443 0.766l0.186-0.038c-8.996 2.12-15.029 8.295-17.262 10.931 0.061 0.075 0.082 0.1 0.102 0.125l-0.039-0.048c2.197 2.56 7.827 8.262 16.125 10.581zM28.605 5.867c-0.012-0-0.026-0-0.040-0-2.361 0-4.543 0.763-6.314 2.056l0.030-0.021c-1.544 1.117-2.743 2.623-3.464 4.376l-0.025 0.067c-0.448 1.083-0.708 2.341-0.708 3.66 0 1.981 0.587 3.825 1.596 5.368l-0.023-0.037c0.19 0.293 0.366 0.539 0.553 0.776l-0.017-0.022c2.010 2.571 5.080 4.044 8.421 4.044 0.012 0 0.027 0 0.042 0 2.36 0 4.541-0.763 6.312-2.056l-0.030 0.021c2.165-1.555 3.671-3.909 4.087-6.623l0.007-0.056c0.067-0.433 0.105-0.932 0.105-1.44 0-0 0-0 0-0.001v0c-0.004-2.303-0.8-4.419-2.13-6.091l0.015 0.020c-2.006-2.569-5.076-4.042-8.419-4.042zM32.907 21.499c1.471-1.056 2.494-2.654 2.777-4.497l0.005-0.038c0.046-0.293 0.072-0.631 0.073-0.976v-0.001c-0.003-1.565-0.545-3.002-1.449-4.138l0.010 0.014c-1.362-1.742-3.444-2.745-5.718-2.745-1.557 0-3.041 0.478-4.291 1.383-0.279 0.203-0.524 0.409-0.755 0.631l0.002-0.002c-1.291 1.224-2.094 2.951-2.094 4.866 0 1.569 0.539 3.011 1.442 4.153l-0.011-0.014c1.33 1.678 3.368 2.745 5.655 2.745 0.023 0 0.046-0 0.068-0l-0.003 0c1.557 0 3.039-0.478 4.289-1.381zM31.012 11.527c-0.617 0.001-1.178 0.242-1.594 0.633l0.001-0.001c-0.402 0.389-0.653 0.932-0.659 1.533v0.001c0 0.569 0.243 1.135 0.659 1.534 0.416 0.401 1.003 0.634 1.593 0.634 0.618-0.001 1.18-0.242 1.596-0.635l-0.001 0.001c0.416-0.401 0.659-0.965 0.659-1.534s-0.243-1.127-0.659-1.534c-0.416-0.392-0.977-0.633-1.595-0.634h-0z"></path>
</symbol>
<symbol id="icon-heart" viewBox="0 0 36 32">
<title>heart</title>
<path d="M26.612 0c-2.402 0.009-4.591 0.91-6.256 2.39l0.010-0.008c-1.11 0.975-1.741 1.375-2.182 1.375-0.378 0-0.899-0.294-1.741-0.995-0.18-0.15-0.325-0.274-0.467-0.4l0.024 0.020c-1.654-1.471-3.844-2.373-6.243-2.381h-0.002c-5.092 0.119-9.231 4.044-9.687 9.034l-0.003 0.039c-0.041 0.353-0.064 0.761-0.064 1.175v0c0 1.042 0.153 2.048 0.436 2.998l-0.019-0.074c0.445 1.538 1.188 2.838 1.93 3.931 0.179 0.265 0.304 0.442 0.432 0.617l-0.051-0.073 8.735 11.182c0.834 1.078 1.9 1.937 3.127 2.509l0.052 0.022c0.864 0.401 1.876 0.637 2.942 0.64h0.001c2.218 0 4.319-1.024 5.912-2.88l9.828-11.466c1.308-1.652 2.792-3.875 3.011-6.692 0.018-0.213 0.029-0.462 0.029-0.713v-0.001c0-5.651-4.377-10.248-9.754-10.248zM31.543 16.032l-9.799 11.429c-0.512 0.605-1.126 1.104-1.82 1.475l-0.033 0.016c-0.669 0.357-1.462 0.567-2.305 0.57h-0.001c-1.326-0.013-2.531-0.523-3.44-1.352l0.004 0.004c-0.315-0.278-0.598-0.578-0.852-0.902l-0.011-0.015-8.705-11.143c-0.078-0.105-0.196-0.272-0.311-0.441l-0.047-0.073c-0.934-1.382-1.866-3.176-1.866-5.353-0-0.012-0-0.026-0-0.041 0-2.241 0.929-4.265 2.423-5.707l0.002-0.002c1.285-1.246 3.037-2.016 4.969-2.022h0.001c1.82 0.006 3.479 0.689 4.739 1.81l-0.007-0.006c1.407 1.236 2.463 1.952 3.698 1.952 0.435-0.002 0.849-0.088 1.228-0.244l-0.022 0.008c0.544-0.212 1.090-0.566 1.687-1.040 0.307-0.246 0.568-0.467 0.824-0.695l-0.021 0.018c1.254-1.114 2.913-1.797 4.731-1.804h0.001c3.86 0.092 6.998 3.068 7.344 6.851l0.002 0.030c0.031 0.267 0.049 0.577 0.049 0.891v0c0 2.25-1.154 4.096-2.309 5.586-0.094 0.122-0.145 0.186-0.196 0.25l0.040-0.052z"></path>
</symbol>
<symbol id="icon-user" viewBox="0 0 32 32">
<title>user</title>
<path d="M22.999 19.999h0.001c4.968 0.006 8.994 4.032 8.999 9v0c-0.002 1.655-1.344 2.997-3 2.999h-26c-1.655-0.003-2.995-1.343-2.999-2.998v-0c0.005-4.968 4.030-8.995 8.999-9.001h-0c0.001 0 0.002 0 0.003 0 0.552 0 0.999 0.447 0.999 0.999 0 0 0 0 0 0v-0c0 0.001 0 0.002 0 0.003 0 0.552-0.447 0.999-0.999 0.999-0.001 0-0.002 0-0.003 0h-0.001c-3.862 0.006-6.992 3.136-6.997 6.999v0c0 0 0 0 0 0 0 0.552 0.447 1 0.999 1.002h26c0.553-0.001 1-0.449 1-1.002 0 0 0 0 0 0v-0c-0.005-3.864-3.136-6.995-7.001-6.999v0c0 0 0 0 0 0-0.552 0-0.999-0.447-0.999-0.999 0-0 0-0.001 0-0.001v0c0-0 0-0.001 0-0.001 0-0.552 0.447-0.999 0.999-0.999 0 0 0 0 0 0zM15.999 21.998h0c-0.002 0-0.005 0-0.008 0-0.718 0-1.412-0.102-2.016-0.278-2.215-0.626-4.119-2.251-5.377-4.466l0.033 0.063c-1.040-1.841-1.633-3.967-1.633-6.232 0-0.030 0-0.060 0-0.085v-0c0-0.684 0.051-1.356 0.139-1.938l0.007-0.062c0.296-2.141 1.16-4.1 2.417-5.695l0.015-0.020c0.312-0.389 0.652-0.754 1.024-1.098l-0.003 0.003c1.406-1.342 3.305-2.173 5.401-2.191h0c0.724 0 1.425 0.104 2.034 0.284 2.209 0.627 4.11 2.251 5.366 4.462l-0.033-0.063c1.040 1.841 1.633 3.967 1.633 6.231 0 0.030-0 0.060-0 0.085v-0c0 0.003 0 0.006 0 0.008 0 0.205-0.005 0.409-0.013 0.583-0.1 2.307-0.785 4.427-1.877 6.144l-0.022 0.040c-1.435 2.449-4.055 4.12-7.087 4.225zM21.12 4.874c-1.121-1.684-2.983-2.797-5.109-2.873l-0.011-0c-0.976 0.003-1.894 0.253-2.694 0.691l0.029-0.015c-1.322 0.701-2.44 1.907-3.211 3.431-0.711 1.405-1.127 3.064-1.127 4.819 0 0.026 0 0.052 0 0.078l-0-0.004c0 0.002 0 0.004 0 0.006 0 0.571 0.041 1.132 0.122 1.68l-0.007-0.062c0.246 1.721 0.874 3.272 1.764 4.503 1.121 1.684 2.984 2.798 5.112 2.873l0.011 0c3.859 0 6.999-4.039 6.999-9.001 0-2.364-0.712-4.519-1.878-6.126z"></path>
</symbol>
<symbol id="icon-bag" viewBox="0 0 36 32">
<title>bag</title>
<path d="M31.652 0h-27.13l-4.522 32h36.174l-4.522-32zM29.69 2.286l3.876 27.428h-30.961l3.876-27.428h23.21zM27.13 6.859c0-0.004 0-0.009 0-0.014 0-1.251-1.011-2.266-2.26-2.272h-0.001c-1.25 0.006-2.261 1.021-2.261 2.272 0 0.005 0 0.010 0 0.015v-0.001c0 0.516 0.181 0.989 0.482 1.361l-0.003-0.004c0.152 0.19 0.326 0.353 0.521 0.489l0.008 0.005c-0.177 1.362-0.548 2.599-1.089 3.74l0.032-0.075c-0.458 0.957-1.027 1.771-1.672 2.385-0.713 0.735-1.698 1.203-2.792 1.241l-0.007 0c-1.141-0.043-2.158-0.543-2.879-1.32l-0.002-0.003c-1.326-1.308-2.314-3.467-2.648-5.969 0.594-0.413 1.007-1.070 1.007-1.85 0-0.004 0-0.009 0-0.014 0-1.251-1.011-2.266-2.26-2.272h-0.001c-1.25 0.006-2.261 1.021-2.261 2.272 0 0.005 0 0.010 0 0.015v-0.001c0 0.593 0.231 1.131 0.606 1.532l-0.001-0.001c0.186 0.201 0.405 0.368 0.649 0.493l0.013 0.006c0.199 1.734 0.673 3.315 1.38 4.761l-0.038-0.086c1.419 2.879 3.745 4.723 6.433 4.723 2.096-0.064 3.94-1.091 5.112-2.651l0.012-0.017c1.37-1.674 2.328-4.026 2.652-6.73 0.727-0.364 1.226-1.087 1.266-1.93l0-0.005c0.001-0.024 0.001-0.053 0.001-0.081 0-0.005 0-0.010-0-0.014v0.001z"></path>
</symbol>
<symbol id="icon-search" viewBox="0 0 32 32">
<title>search</title>
<path d="M19.999 0.001c-6.627 0.001-11.999 5.373-11.999 11.999v0c0 2.027 0.506 3.933 1.395 5.608l-8.345 8.342 0.007 0.006c-0.65 0.64-1.052 1.53-1.052 2.514 0 1.947 1.576 3.526 3.523 3.53h0c0.001 0 0.003 0 0.004 0 0.742 0 1.43-0.231 1.997-0.625l-0.011 0.008c0.196-0.136 0.368-0.281 0.525-0.441l0-0-0.001-0.001 8.341-8.339c1.49 0.808 3.25 1.313 5.12 1.388l0.023 0.001c0.14 0.006 0.306 0.010 0.472 0.010h0.001c6.627 0 11.999-5.372 11.999-11.998v-0c-0.001-6.627-5.373-11.999-11.999-11.999h-0zM9.999 12.002c0.002 5.522 4.478 9.998 10 9.999h0c5.435-0.115 9.797-4.548 9.797-10s-4.362-9.885-9.787-9.999l-0.011-0c-5.522 0.001-9.999 4.478-9.999 10v0zM4.796 29.69c-0.323 0.334-0.769 0.543-1.266 0.543-0 0-0.001 0-0.001 0-0.974 0-1.763-0.789-1.764-1.763v-0c0-0 0-0.001 0-0.001 0-0.389 0.127-0.747 0.343-1.037l-0.003 0.005c0.064-0.086 0.13-0.162 0.203-0.232l0.001-0-0.008-0.008 8.065-8.065c0.716 0.957 1.538 1.781 2.463 2.475l0.031 0.023-8.064 8.062zM19.998 5.001c-3.866 0-6.999 3.134-6.999 6.999v0c0.014 0.265 0.233 0.474 0.5 0.474s0.486-0.209 0.5-0.473l0-0.001c0-3.313 2.686-5.999 5.999-5.999v0c0.277 0 0.501-0.224 0.501-0.501v0c0-0.277-0.224-0.501-0.501-0.501v0z"></path>
</symbol>
<symbol id="icon-pinterest" viewBox="0 0 28 32">
<title>pinterest</title>
<path d="M14.767 0c-9.817 0-14.767 6.261-14.767 11.483 0 3.161 1.345 5.974 4.231 7.020 0.473 0.174 0.897 0.006 1.035-0.459 0.095-0.321 0.32-1.135 0.422-1.475 0.139-0.462 0.083-0.622-0.298-1.025-0.832-0.872-1.363-2.003-1.363-3.603 0-4.647 3.907-8.804 10.173-8.804 5.548 0 8.597 3.016 8.597 7.044 0 5.301-2.636 9.773-6.55 9.773-2.162 0-3.779-1.59-3.261-3.541 0.62-2.329 1.823-4.842 1.823-6.524 0-1.504-0.907-2.759-2.785-2.759-2.209 0-3.986 2.034-3.986 4.758 0 1.735 0.659 2.908 0.659 2.908l-2.657 10.017c-0.789 2.972-0.118 6.617-0.061 6.984 0.033 0.217 0.348 0.27 0.491 0.106 0.203-0.236 2.835-3.128 3.729-6.016 0.255-0.817 1.454-5.052 1.454-5.052 0.719 1.219 2.817 2.29 5.049 2.29 6.64 0 11.147-5.386 11.147-12.596 0-5.452-5.189-10.53-13.078-10.53z"></path>
</symbol>
<symbol id="icon-twitter" viewBox="0 0 33 32">
<title>twitter</title>
<path d="M33.405 3.79c-1.14 0.612-2.467 1.058-3.872 1.262l-0.065 0.008c1.417-1 2.501-2.582 3.014-4.47-1.239 0.884-2.695 1.561-4.266 1.943l-0.086 0.018c-1.251-1.57-3.031-2.551-5.002-2.551-3.785 0-6.853 3.616-6.853 8.078 0 0.633 0.059 1.249 0.177 1.839-5.695-0.334-10.746-3.551-14.126-8.439-0.585 1.172-0.927 2.553-0.927 4.015 0 0.017 0 0.033 0 0.050v-0.003c0 2.803 1.209 5.276 3.048 6.723-1.163-0.050-2.229-0.421-3.126-1.024l0.022 0.014v0.103c0 3.913 2.361 7.178 5.496 7.921-0.539 0.178-1.159 0.281-1.803 0.281-0.458 0-0.903-0.052-1.331-0.15l0.040 0.008c0.872 3.207 3.403 5.546 6.4 5.61-2.344 2.167-5.299 3.457-8.509 3.457-0.553 0-1.099-0.038-1.636-0.112 3.034 2.292 6.635 3.629 10.506 3.629 12.607 0 19.499-12.309 19.499-22.986 0-0.35-0.006-0.699-0.019-1.045 1.339-1.137 2.501-2.561 3.419-4.18z"></path>
</symbol>
<symbol id="icon-facebook" viewBox="0 0 17 32">
<title>facebook</title>
<path d="M16.486 11.295h-6.182v-3.766c0-1.247 1.484-2.026 2.129-2.026h3.962v-5.484l-5.456-0.019c-6.058 0-6.819 4.912-6.819 7.529v3.766h-4.121v5.647h4.121v15.059h6.182v-15.059h6.183v-5.647z"></path>
</symbol>
<symbol id="icon-google" viewBox="0 0 31 32">
<title>google</title>
<path d="M12.899 15.369c-0 0.002-0 0.004-0 0.006s0 0.004 0 0.006v-0c0.035 0.372 0.931 1.53 1.913 2.321 0.093 0.074 0.158 0.127 0.222 0.181l-0.023-0.018c2.17 1.809 2.985 3.619 2.985 6.585-0.001 1.762-0.651 3.372-1.725 4.603l0.007-0.008c-0.974 1.109-2.227 1.951-3.651 2.416l-0.058 0.017c-0.129 0.046-0.33 0.107-0.534 0.162l-0.070 0.016c-0.826 0.22-1.773 0.346-2.751 0.346-0.016 0-0.033-0-0.049-0h0.002c-0.176-0-0.351-0.003-0.525-0.009l0.026 0.001c-1.195-0.036-2.332-0.219-3.414-0.533l0.096 0.024c-1.196-0.343-2.23-0.844-3.062-1.472-0.74-0.544-1.338-1.239-1.755-2.043l-0.015-0.033c-0.327-0.648-0.519-1.412-0.519-2.222 0-0.001 0-0.003 0-0.004v0c0.001-0.479 0.058-0.944 0.165-1.389l-0.008 0.041c0.098-0.412 0.216-0.765 0.36-1.105l-0.017 0.045c0.566-1.315 1.433-2.407 2.52-3.225l0.020-0.015c1.579-1.19 3.575-1.906 5.737-1.906 0.017 0 0.034 0 0.050 0h0.105c-0.283-0.544-0.449-1.189-0.449-1.872 0-0.003 0-0.006 0-0.009v0c-0-0.009-0-0.020-0-0.031s0-0.021 0-0.032v0.002c0.006-0.335 0.048-0.658 0.121-0.968l-0.006 0.031c-2.446-0.057-4.563-1.408-5.7-3.393l-0.017-0.033c-0.681-1.176-1.083-2.587-1.083-4.093 0-0.031 0-0.062 0-0.093l-0 0.005c0.003-0.796 0.141-1.559 0.393-2.267l-0.015 0.048c0.825-2.262 2.543-4.027 4.717-4.897l0.056-0.020c0.419-0.17 0.913-0.316 1.425-0.413l0.050-0.008c0.381-0.073 0.819-0.115 1.267-0.115h8.317c0.161 0.001 0.307 0.065 0.415 0.169l-0-0c0.096 0.092 0.168 0.209 0.205 0.341l0.001 0.005c0.013 0.041 0.023 0.089 0.029 0.139l0 0.004c0.004 0.028 0.006 0.060 0.006 0.093 0 0.237-0.105 0.45-0.272 0.594l-0.001 0.001-1.86 1.53c-0.103 0.087-0.236 0.139-0.383 0.14h-0.666c0.858 1.172 1.363 2.839 1.363 4.717-0 0.912-0.176 1.783-0.497 2.581l0.017-0.047c-0.482 1.185-1.203 2.184-2.109 2.979l-0.009 0.008c-1.084 0.959-1.297 1.335-1.338 1.815-0.006 0.076-0.009 0.164-0.009 0.254 0 0.017 0 0.033 0 0.050l-0-0.003zM30.698 12.993h0.001c0.214 0.004 0.403 0.115 0.514 0.285l-0.002-0.003c0.089 0.13 0.141 0.287 0.141 0.456 0 0.002 0 0.004-0 0.006v1.527c0 0.41-0.294 0.745-0.655 0.745h-4.727v5.373c0 0.002 0 0.004 0 0.007 0 0.12-0.026 0.234-0.070 0.331l-0.002 0.004c-0.095 0.229-0.318 0.392-0.58 0.4h-1.347c-0.213-0.004-0.401-0.113-0.513-0.281l0.002 0.003c-0.091-0.13-0.144-0.288-0.144-0.459 0-0.002 0-0.003 0-0.004v-5.373h-4.728c-0.211-0.005-0.397-0.113-0.508-0.279l0.002 0.003c-0.092-0.131-0.146-0.29-0.146-0.462 0-0.002 0-0.003 0-0.005v-1.529c0-0.41 0.294-0.745 0.655-0.745h4.727v-5.37c0-0.001 0-0.002 0-0.003 0-0.113 0.023-0.222 0.063-0.314l0.002-0.005c0.092-0.239 0.32-0.411 0.59-0.42h1.348c0.212 0.004 0.398 0.114 0.51 0.281l-0.002-0.003c0.090 0.13 0.143 0.287 0.143 0.457 0 0.002 0 0.005-0 0.006v5.37h4.727zM5.683 21.959c-0.806 0.654-1.33 1.629-1.374 2.727l-0 0.007c0.015 1.494 0.816 2.798 2.009 3.518l0.019 0.010c0.787 0.491 1.743 0.781 2.767 0.781 0.017 0 0.033-0 0.050-0l-0.003 0c2.639 0 4.319-0.761 5.021-2.266 0.24-0.53 0.379-1.149 0.379-1.8 0-0.036-0-0.072-0.001-0.108l0 0.005c-0.001-0.276-0.030-0.545-0.085-0.804l0.005 0.026c-0.007-0.036-0.009-0.045-0.011-0.054l0.005 0.028c-0.073-0.32-0.197-0.602-0.364-0.853l0.006 0.009c-0.349-0.541-0.905-1.014-1.626-1.58 0.059 0.041-0.083-0.070-0.225-0.181l-0.21-0.158c0.33 0.244 0.286 0.21 0.241 0.175l-0.378-0.28c-0.281-0.215-0.419-0.323-0.557-0.433l0.132 0.101c-0.531-0.189-1.143-0.302-1.78-0.308l-0.003-0h-0.077c-1.526 0-2.951 0.567-3.942 1.436zM7.513 3.123c-0.246 0.158-0.454 0.35-0.624 0.573l-0.004 0.006c-0.073 0.094-0.145 0.2-0.212 0.31l-0.008 0.015c-0.423 0.716-0.64 1.676-0.625 2.746 0.005 0.283 0.024 0.555 0.056 0.823l-0.004-0.038c0.217 1.884 1.103 3.594 2.209 4.531 0.453 0.417 1.045 0.69 1.699 0.743l0.010 0.001h0.029c0.006 0 0.014 0 0.021 0 0.387 0 0.748-0.111 1.053-0.303l-0.008 0.005c0.246-0.159 0.453-0.352 0.623-0.576l0.004-0.006c0.067-0.086 0.134-0.182 0.196-0.283l0.008-0.014c0.548-0.906 0.778-2.236 0.615-3.641-0.112-0.968-0.383-1.849-0.787-2.652l0.021 0.045c-0.337-0.688-0.777-1.272-1.308-1.759l-0.004-0.004c-0.482-0.463-1.122-0.766-1.831-0.82l-0.010-0.001h-0.073c-0.003-0-0.007-0-0.011-0-0.384 0-0.741 0.111-1.043 0.301l0.008-0.005z"></path>
</symbol>
</defs>
</svg>
